<?xml version="1.0" encoding="UTF-8" standalone="no"?>
<svg
   xmlns:dc="http://purl.org/dc/elements/1.1/"
   xmlns:cc="http://creativecommons.org/ns#"
   xmlns:rdf="http://www.w3.org/1999/02/22-rdf-syntax-ns#"
   xmlns:svg="http://www.w3.org/2000/svg"
   xmlns="http://www.w3.org/2000/svg"
   viewBox="0 0 48 49.333332"
   height="49.333332"
   width="48"
   xml:space="preserve"
   id="svg2"
   version="1.1"><metadata
     id="metadata8"><rdf:RDF><cc:Work
         rdf:about=""><dc:format>image/svg+xml</dc:format><dc:type
           rdf:resource="http://purl.org/dc/dcmitype/StillImage" /></cc:Work></rdf:RDF></metadata><defs
     id="defs6" /><g
     transform="matrix(1.3333333,0,0,-1.3333333,0,49.333333)"
     id="g10"><g
       transform="scale(0.1)"
       id="g12"><path
         id="path14"
         style="fill:#231f20;fill-opacity:1;fill-rule:nonzero;stroke:none"
         d="M 140.285,124.699 68.5898,45.4883 67.9609,46.1133 67.5195,45.625 55.2617,57.8828 54.8672,57.5234 55.2266,57.918 42.4727,70.6758 122.238,142.836 c 4.871,-7.082 10.989,-13.234 18.047,-18.137 z m 24.531,-10.847 -35.996,-100.8715 -16.054,6.6484 -0.332,-0.6914 0.261,0.7227 -16.6012,6.875 45.9692,96.9648 c 6.859,-4.461 14.535,-7.77 22.753,-9.648 z m 27.793,-0.782 5.332,-106.79266 -17.507,0.00391 -0.051,-0.96484 -0.047,0.96484 h -17.813 l 5.352,106.94175 c 4.156,-0.758 8.434,-1.153 12.805,-1.153 4.066,0 8.05,0.34 11.929,1 z m 26.008,10 45.75,-96.5309 -16.363,-6.7735 0.367,-1.0351 -0.469,0.9883 -16.257,-6.7305 -35.918,100.6797 c 8.257,1.785 15.98,5.012 22.89,9.402 z m 20.16,19.278 79.203,-71.6722 -12.511,-12.5117 0.578,-1.0235 -0.84,0.7617 -12.273,-12.2695 -71.657,79.2112 c 6.809,4.765 12.739,10.695 17.5,17.504 z m 11.168,25.55 100.676,-35.933 -6.773,-16.348 -0.192,-0.457 0.973,-0.461 -1.012,0.36 -6.551,-15.8129 -96.515,45.7579 c 4.39,6.914 7.613,14.637 9.394,22.894 z m 0.481,27.653 106.754,5.328 v -18.191 l 1.074,-0.051 -1.074,-0.055 -0.004,-17.117 -106.664,5.344 c 0.679,3.941 1.031,7.992 1.031,12.125 0,4.308 -0.383,8.523 -1.117,12.617 z m -10.141,25.734 96.582,45.77 6.637,-16.028 0.387,0.137 -0.371,-0.176 0.308,-0.738 1.012,0.359 -0.973,-0.461 6.547,-15.812 -100.574,-35.875 c -1.844,8.242 -5.121,15.941 -9.555,22.824 z m -19.219,19.891 71.711,79.246 12.235,-12.234 0.48,0.437 -0.433,-0.484 0.578,-0.582 0.801,0.718 -0.723,-0.797 12.101,-12.105 -79.191,-71.633 c -4.789,6.785 -10.738,12.692 -17.559,17.434 z m -25.363,11.031 35.922,100.641 16.023,-6.637 0.383,0.801 -0.297,-0.836 16.606,-6.883 -45.746,-96.477 c -6.91,4.383 -14.633,7.606 -22.891,9.391 z m -27.781,0.449 -5.395,107.899 h 35.434 l -0.059,-1.153 h 0.231 L 192.789,252.77 c -3.937,0.679 -7.98,1.031 -12.109,1.031 -4.356,0 -8.617,-0.391 -12.758,-1.145 z m -25.602,-10.125 -45.7575,96.571 -0.4805,1.183 32.734,13.555 0.434,-1.203 35.887,-100.547 c -8.239,-1.844 -15.938,-5.121 -22.817,-9.559 z m -19.886,-19.218 -79.2309,71.707 0.2266,0.226 -0.9766,0.883 L 67.5078,321.18 140.047,241 c -6.859,-4.809 -12.832,-10.801 -17.613,-17.687 z m -11.028,-25.356 -100.6247,35.922 0.2109,0.516 -1.18361,0.421 13.55471,32.731 97.6837,-46.309 c -4.512,-7.008 -7.82,-14.867 -9.641,-23.281 z M 110.938,170.309 4.21875,164.988 v 0.746 L 3.10547,165.68 v 17.523 l 0.00391,17.902 107.85162,-5.398 c -0.754,-4.141 -1.148,-8.41 -1.148,-12.773 0,-4.309 0.386,-8.528 1.125,-12.625 z m -86.4185,-71.477 -0.3281,0.8008 -0.8203,-0.3906 -6.6484,16.0628 -0.2735,-0.098 0.2617,0.125 -6.89449,16.641 101.53159,36.222 c 1.804,-8.535 5.148,-16.507 9.726,-23.609 L 24.5195,98.832" /></g></g></svg>