<?xml version="1.0" encoding="UTF-8" standalone="no"?>
<svg
   xmlns:dc="http://purl.org/dc/elements/1.1/"
   xmlns:cc="http://creativecommons.org/ns#"
   xmlns:rdf="http://www.w3.org/1999/02/22-rdf-syntax-ns#"
   xmlns:svg="http://www.w3.org/2000/svg"
   xmlns="http://www.w3.org/2000/svg"
   viewBox="0 0 125.94667 104.10667"
   height="104.10667"
   width="125.94667"
   xml:space="preserve"
   id="svg2"
   version="1.1"><metadata
     id="metadata8"><rdf:RDF><cc:Work
         rdf:about=""><dc:format>image/svg+xml</dc:format><dc:type
           rdf:resource="http://purl.org/dc/dcmitype/StillImage" /></cc:Work></rdf:RDF></metadata><defs
     id="defs6" /><g
     transform="matrix(1.3333333,0,0,-1.3333333,0,104.10667)"
     id="g10"><g
       transform="scale(0.1)"
       id="g12"><path
         id="path14"
         style="fill:#231f20;fill-opacity:1;fill-rule:nonzero;stroke:none"
         d="m 705.102,525.68 c 33.343,0 60.253,27.023 60.253,60.414 0,33.371 -27.042,60.414 -60.417,60.414 H 194.703 c -33.363,0 -60.414,-27.043 -60.414,-60.414 0,-33.364 27.051,-60.414 60.414,-60.414 h 59.926 C 401.18,525.848 517.016,400.797 517.016,258.484 517.016,115.727 401.289,0 258.535,0 149.012,0 75.6289,59.6055 24.1445,147.047 c -3.4843,5.914 -1.332,14.082 4.6133,17.516 l 94.1562,54.363 c 5.789,3.34 13.945,1.207 17.352,-4.539 28.886,-48.719 61.117,-80.102 118.269,-80.102 68.59,0 124.192,55.606 124.192,124.199 0,67.653 -53.532,129.95 -118.418,132.946 l -69.602,-0.039 C 87.1758,391.391 0,478.566 0,586.094 0,693.633 87.1758,780.801 194.703,780.801 h 510.235 c 107.539,0 194.707,-87.172 194.707,-194.707 0,-46.856 -16.582,-89.867 -44.133,-123.446 54.554,-47.355 89.133,-117.269 89.133,-195.281 C 944.645,126.82 832.047,12.4141 692.34,8.89063 l -6.172,-0.00391 h -166.07 c -6.789,0 -12.758,5.96488 -12.758,12.75388 V 130.414 c 0,6.785 5.969,12.754 12.754,12.758 l 163.129,0.027 c 71.937,-0.019 127.132,55.989 127.132,124.168 0,66.641 -52.5,121.031 -118.367,124.063 l -171.89,-0.043 c -6.789,0 -12.758,5.968 -12.758,12.758 v 108.683 c 0,6.774 5.965,12.742 12.734,12.758 l 163.168,0.246 7.274,-0.019 14.586,-0.133 v 0" /></g></g></svg>