<?xml version="1.0" standalone="no"?>
<!DOCTYPE svg PUBLIC "-//W3C//DTD SVG 20010904//EN"
 "http://www.w3.org/TR/2001/REC-SVG-20010904/DTD/svg10.dtd">
<svg version="1.0" xmlns="http://www.w3.org/2000/svg"
 width="1184.000000pt" height="1184.000000pt" viewBox="0 0 1184.000000 1184.000000"
 preserveAspectRatio="xMidYMid meet">
<metadata>
Created by potrace 1.14, written by Peter Selinger 2001-2017
</metadata>
<g transform="translate(0.000000,1184.000000) scale(0.100000,-0.100000)"
fill="#000000" stroke="none">
<path d="M5324 11733 c4 -54 45 -860 91 -1792 47 -932 86 -1696 88 -1698 2 -1
53 4 113 13 140 21 490 21 619 1 50 -8 91 -14 92 -13 5 4 179 3553 175 3569
-4 16 -41 17 -594 17 l-590 0 6 -97z"/>
<path d="M3651 11386 c-294 -122 -536 -227 -538 -233 -2 -5 332 -718 743
-1584 411 -866 756 -1595 768 -1620 l22 -46 109 63 c170 98 413 195 611 244
l41 10 -605 1695 c-333 932 -608 1695 -611 1694 -3 0 -246 -101 -540 -223z"/>
<path d="M7027 9906 c-328 -920 -597 -1675 -597 -1678 0 -3 33 -14 73 -23 184
-45 448 -152 610 -248 l77 -46 43 92 c24 51 367 773 761 1605 395 832 716
1515 713 1518 -3 4 -950 399 -1063 444 -20 8 -50 -74 -617 -1664z"/>
<path d="M1730 10105 l-414 -414 39 -45 c22 -25 622 -572 1334 -1215 l1294
-1170 63 83 c117 155 285 324 447 448 l77 59 -224 247 c-123 136 -665 735
-1205 1332 -540 597 -985 1086 -989 1088 -4 1 -194 -185 -422 -413z"/>
<path d="M8464 9173 l-1192 -1317 82 -61 c148 -113 310 -272 435 -430 35 -44
67 -80 72 -80 4 0 584 522 1290 1160 705 638 1296 1172 1313 1187 l31 27 -415
415 c-228 229 -417 416 -420 416 -3 0 -541 -593 -1196 -1317z"/>
<path d="M677 8723 c-4 -7 -428 -1029 -444 -1069 -2 -7 5 -15 16 -19 12 -3 19
-11 16 -16 -4 -5 -4 -9 -1 -9 2 0 755 -268 1672 -595 917 -327 1671 -595 1675
-595 4 0 10 15 14 33 35 173 140 442 242 621 35 61 63 112 63 115 0 5 -3182
1517 -3232 1536 -9 4 -18 3 -21 -2z"/>
<path d="M9513 7952 c-876 -415 -1593 -758 -1593 -762 0 -3 28 -55 63 -116 80
-141 159 -326 204 -478 19 -67 38 -130 41 -142 7 -20 93 10 1666 571 913 326
1666 597 1673 601 19 12 -423 1085 -446 1083 -9 -1 -733 -341 -1608 -757z"/>
<path d="M10 6367 c0 -85 -3 -350 -7 -590 l-6 -437 21 0 c11 0 22 -5 24 -11 3
-9 471 11 1778 76 976 48 1776 89 1777 90 2 1 -4 49 -13 106 -22 139 -23 483
-1 629 9 57 14 106 13 108 -3 2 -3520 181 -3573 182 -10 0 -13 -37 -13 -153z"/>
<path d="M9960 6422 c-938 -47 -1706 -86 -1707 -86 -1 -1 6 -49 14 -106 21
-135 21 -495 1 -627 -8 -51 -12 -93 -10 -93 26 0 3426 -170 3480 -174 l72 -6
0 284 c0 263 1 285 18 289 16 4 16 5 0 6 -17 1 -18 22 -18 301 l0 300 -72 -1
c-40 -1 -840 -40 -1778 -87z"/>
<path d="M1920 4820 c-921 -330 -1679 -600 -1683 -602 -13 -5 439 -1083 454
-1083 8 0 17 -5 21 -11 5 -8 527 234 1613 749 883 418 1605 763 1605 767 0 3
-28 55 -63 116 -104 182 -214 466 -243 627 -3 20 -11 37 -18 36 -6 0 -765
-270 -1686 -599z"/>
<path d="M8207 5304 c-49 -190 -151 -434 -245 -586 l-42 -68 73 -33 c39 -19
762 -361 1606 -761 843 -400 1537 -724 1541 -719 9 10 451 1075 447 1079 -3 3
-3317 1185 -3337 1191 -12 3 -21 -21 -43 -103z"/>
<path d="M2647 3377 l-1327 -1202 415 -415 c319 -319 421 -416 440 -415 18 0
280 283 1213 1314 l1190 1315 -81 61 c-165 125 -336 296 -454 455 -31 41 -59
78 -62 81 -3 4 -603 -534 -1334 -1194z"/>
<path d="M7785 4460 c-98 -126 -258 -287 -390 -393 -56 -45 -103 -86 -103 -92
-1 -5 533 -600 1186 -1322 l1187 -1312 205 205 c167 166 208 202 218 192 11
-11 12 -10 6 5 -5 15 35 61 200 226 l206 206 -1276 1155 c-703 635 -1296 1172
-1319 1192 l-42 37 -78 -99z"/>
<path d="M3876 2328 c-417 -881 -759 -1608 -760 -1616 -1 -9 188 -92 539 -237
296 -123 540 -223 541 -222 5 5 1188 3324 1192 3345 3 16 0 22 -13 22 -39 0
-263 73 -383 125 -70 30 -178 84 -240 120 -62 36 -113 65 -115 65 -1 0 -344
-721 -761 -1602z"/>
<path d="M7105 3869 c-159 -96 -412 -198 -603 -244 -58 -14 -73 -21 -69 -34 4
-13 1158 -3247 1184 -3318 8 -21 25 -15 543 199 294 121 539 224 544 229 7 6
-1494 3192 -1513 3210 -3 3 -42 -16 -86 -42z"/>
<path d="M5496 3518 c-3 -40 -42 -800 -86 -1688 -44 -888 -83 -1657 -86 -1707
l-6 -93 295 0 c227 0 297 -3 300 -12 4 -10 6 -10 6 0 1 9 66 12 292 12 l292 0
-6 88 c-4 48 -43 830 -87 1737 -44 908 -83 1668 -86 1690 l-5 41 -87 -14
c-127 -20 -489 -19 -621 2 -58 9 -106 16 -107 16 -1 0 -5 -33 -8 -72z"/>
</g>
</svg>
